<svg width="182" height="243" viewBox="0 0 182 243" fill="none" xmlns="http://www.w3.org/2000/svg">
<rect x="155" width="27" height="243" fill="#5300A0"/>
<path d="M0.00277966 148.833C-0.0892166 151.593 2.07354 153.905 4.83343 153.997L49.8085 155.496C52.5683 155.588 54.8803 153.426 54.9723 150.666C55.0643 147.906 52.9015 145.594 50.1416 145.502L10.1638 144.169L11.4964 104.192C11.5884 101.432 9.42564 99.1197 6.66575 99.0277C3.90586 98.9358 1.59395 101.099 1.50195 103.858L0.00277966 148.833ZM160 4L156.584 0.348643L1.58422 145.349L5.00001 149L8.41579 152.651L163.416 7.65136L160 4Z" fill="#5300A0"/>
<line x1="71" y1="151.5" x2="155" y2="151.5" stroke="#5300A0" stroke-width="3"/>
</svg>
