<svg width="352" height="260" viewBox="0 0 352 260" fill="none" xmlns="http://www.w3.org/2000/svg">
<path d="M193 0C264.797 0 323 58.203 323 130C323 201.797 264.797 260 193 260C121.203 260 63 201.797 63 130C63 58.203 121.203 0 193 0ZM193 41C142.742 41 102 81.7421 102 132C102 182.258 142.742 223 193 223C243.258 223 284 182.258 284 132C284 81.7421 243.258 41 193 41Z" fill="#5300A0"/>
<mask id="path-2-inside-1_5_4" fill="white">
<path d="M15.8749 90.458C25.5649 87.0521 44.0659 87.2235 69.1252 90.9509L70.8266 91.9338C49.4686 89.9855 35.6735 91.947 33.4982 98.388C28.346 113.647 90.3554 148.268 172 175.715C253.645 203.163 324.009 213.044 329.163 197.785C330.862 192.754 325.259 185.619 314.059 177.329L314.316 177.375C332.647 188.942 342.779 198.863 343.479 205.932C344.18 213 335.418 216.911 318.26 217.187C301.102 217.463 276.289 214.093 246.84 207.488C217.392 200.882 184.579 191.325 152.396 179.982C120.213 168.638 90.0483 155.995 65.574 143.594C41.0997 131.193 23.3709 119.568 14.5471 110.134C5.72339 100.7 6.1849 93.8639 15.8749 90.458Z"/>
</mask>
<path d="M15.8749 90.458C25.5649 87.0521 44.0659 87.2235 69.1252 90.9509L70.8266 91.9338C49.4686 89.9855 35.6735 91.947 33.4982 98.388C28.346 113.647 90.3554 148.268 172 175.715C253.645 203.163 324.009 213.044 329.163 197.785C330.862 192.754 325.259 185.619 314.059 177.329L314.316 177.375C332.647 188.942 342.779 198.863 343.479 205.932C344.18 213 335.418 216.911 318.26 217.187C301.102 217.463 276.289 214.093 246.84 207.488C217.392 200.882 184.579 191.325 152.396 179.982C120.213 168.638 90.0483 155.995 65.574 143.594C41.0997 131.193 23.3709 119.568 14.5471 110.134C5.72339 100.7 6.1849 93.8639 15.8749 90.458Z" fill="#6815D7"/>
<path d="M15.8749 90.458L15.5433 89.5146L15.5433 89.5146L15.8749 90.458ZM69.1252 90.9509L69.6254 90.085L69.4606 89.9898L69.2723 89.9618L69.1252 90.9509ZM70.8266 91.9338L70.7357 92.9297L71.3268 91.068L70.8266 91.9338ZM33.4982 98.388L32.5507 98.0681L32.5507 98.0681L33.4982 98.388ZM172 175.715L171.681 176.663L172 175.715ZM329.163 197.785L330.11 198.105L330.11 198.105L329.163 197.785ZM314.059 177.329L314.235 176.345L313.464 178.133L314.059 177.329ZM314.316 177.375L314.849 176.529L314.684 176.425L314.492 176.391L314.316 177.375ZM343.479 205.932L344.475 205.833L343.479 205.932ZM318.26 217.187L318.276 218.187L318.26 217.187ZM246.84 207.488L246.621 208.464L246.84 207.488ZM152.396 179.982L152.063 180.925L152.396 179.982ZM65.574 143.594L65.122 144.486L65.574 143.594ZM14.5471 110.134L13.8168 110.817L13.8168 110.817L14.5471 110.134ZM15.8749 90.458L16.2065 91.4014C20.8883 89.7558 27.799 88.9467 36.7273 89.0294C45.6362 89.1119 56.4779 90.0807 68.9781 91.9401L69.1252 90.9509L69.2723 89.9618C56.7132 88.0937 45.7748 87.1131 36.7458 87.0295C27.7362 86.9461 20.5515 87.7543 15.5433 89.5146L15.8749 90.458ZM69.1252 90.9509L68.625 91.8168L70.3263 92.7997L70.8266 91.9338L71.3268 91.068L69.6254 90.085L69.1252 90.9509ZM70.8266 91.9338L70.9174 90.938C60.2049 89.9608 51.3193 89.9561 44.8064 91.0282C41.5511 91.5641 38.8336 92.3774 36.7644 93.5113C34.689 94.6486 33.1992 96.1479 32.5507 98.0681L33.4982 98.388L34.4456 98.708C34.8848 97.4076 35.9351 96.2464 37.7255 95.2652C39.5222 94.2807 41.9962 93.5177 45.1313 93.0016C51.3993 91.9699 60.0902 91.9586 70.7357 92.9297L70.8266 91.9338ZM33.4982 98.388L32.5507 98.0681C31.782 100.345 32.3119 102.858 33.7465 105.45C35.1825 108.045 37.5882 110.84 40.8094 113.786C47.2572 119.683 57.1539 126.342 69.7128 133.354C94.8452 147.386 130.819 162.926 171.681 176.663L172 175.715L172.319 174.768C131.536 161.057 95.6832 145.563 70.6878 131.608C58.1827 124.626 48.4403 118.054 42.1591 112.31C39.0156 109.436 36.7843 106.809 35.4964 104.482C34.2071 102.152 33.9263 100.246 34.4456 98.708L33.4982 98.388ZM172 175.715L171.681 176.663C212.544 190.401 250.608 199.751 279.126 203.755C293.377 205.756 305.295 206.43 314.005 205.629C318.355 205.229 321.966 204.456 324.682 203.258C327.396 202.061 329.341 200.381 330.11 198.105L329.163 197.785L328.215 197.465C327.696 199.003 326.315 200.352 323.875 201.428C321.438 202.503 318.068 203.247 313.821 203.638C305.337 204.418 293.594 203.767 279.405 201.775C251.041 197.792 213.101 188.478 172.319 174.768L172 175.715ZM329.163 197.785L330.11 198.105C331.123 195.106 329.893 191.703 327.248 188.179C324.575 184.618 320.287 180.694 314.654 176.525L314.059 177.329L313.464 178.133C319.031 182.253 323.144 186.042 325.648 189.379C328.18 192.752 328.902 195.433 328.215 197.465L329.163 197.785ZM314.059 177.329L313.883 178.314L314.14 178.359L314.316 177.375L314.492 176.391L314.235 176.345L314.059 177.329ZM314.316 177.375L313.782 178.221C322.917 183.985 329.968 189.314 334.81 194.055C339.692 198.836 342.171 202.869 342.484 206.03L343.479 205.932L344.475 205.833C344.088 201.926 341.15 197.464 336.209 192.626C331.227 187.747 324.046 182.332 314.849 176.529L314.316 177.375ZM343.479 205.932L342.484 206.03C342.636 207.565 342.279 208.888 341.438 210.046C340.582 211.225 339.181 212.291 337.159 213.193C333.097 215.006 326.78 216.05 318.244 216.187L318.26 217.187L318.276 218.187C326.898 218.048 333.54 216.998 337.974 215.02C340.199 214.026 341.93 212.772 343.056 211.221C344.198 209.649 344.673 207.833 344.475 205.833L343.479 205.932ZM318.26 217.187L318.244 216.187C301.203 216.461 276.479 213.111 247.059 206.512L246.84 207.488L246.621 208.464C276.098 215.075 301.001 218.465 318.276 218.187L318.26 217.187ZM246.84 207.488L247.059 206.512C217.654 199.916 184.879 190.371 152.728 179.038L152.396 179.982L152.063 180.925C184.279 192.28 217.13 201.848 246.621 208.464L246.84 207.488ZM152.396 179.982L152.728 179.038C120.577 167.706 90.4536 155.08 66.026 142.702L65.574 143.594L65.122 144.486C89.6429 156.911 119.849 169.57 152.063 180.925L152.396 179.982ZM65.574 143.594L66.026 142.702C41.5655 130.308 23.9732 118.749 15.2774 109.451L14.5471 110.134L13.8168 110.817C22.7686 120.388 40.6339 132.078 65.122 144.486L65.574 143.594ZM14.5471 110.134L15.2774 109.451C10.8998 104.771 9.07223 100.975 9.26609 98.1029C9.44978 95.381 11.514 93.0508 16.2065 91.4014L15.8749 90.458L15.5433 89.5146C10.5457 91.2712 7.53425 94.062 7.27063 97.9683C7.01716 101.724 9.37066 106.064 13.8168 110.817L14.5471 110.134Z" fill="#6815D7" mask="url(#path-2-inside-1_5_4)"/>
</svg>
